<?xml version="1.0" encoding="utf-8"?>
<!-- Generator: Adobe Illustrator 26.0.3, SVG Export Plug-In . SVG Version: 6.00 Build 0)  -->
<svg version="1.1" id="Layer_1" xmlns="http://www.w3.org/2000/svg" xmlns:xlink="http://www.w3.org/1999/xlink" x="0px" y="0px"
	 viewBox="0 0 98 67" style="enable-background:new 0 0 98 67;" xml:space="preserve">
<style type="text/css">
	.st0{fill:#FFFFFF;stroke:#FFFFFF;stroke-width:0.1324;stroke-miterlimit:10;}
	.st1{fill:none;stroke:#FFFFFF;stroke-width:0.567;stroke-linecap:round;stroke-linejoin:round;stroke-miterlimit:10;}
	.st2{fill:#91A23A;stroke:#92A23A;stroke-width:0.7284;stroke-linecap:round;stroke-linejoin:round;stroke-miterlimit:10;}
	.st3{fill:#FFFFFF;}
</style>
<g>
	<path class="st0" d="M37,26.7v11.5c0,0.2-0.1,0.3-0.3,0.3c-0.2,0-0.3-0.1-0.3-0.3v-3c-0.9,2-2.9,3.4-5.1,3.4
		c-3.2,0-5.7-2.8-5.7-6.1s2.6-6.1,5.7-6.1c2.2,0,4.2,1.4,5.1,3.4v-3c0-0.1,0.1-0.3,0.3-0.3C36.9,26.4,37,26.5,37,26.7z M36.4,32.4
		c0-3-2.3-5.4-5.1-5.4s-5.1,2.4-5.1,5.4c0,3,2.3,5.5,5.1,5.5S36.4,35.5,36.4,32.4z"/>
	<path class="st0" d="M36.7,26.2c-0.3,0-0.5,0.2-0.5,0.5v2.5c-0.5-0.8-1.1-1.5-1.9-2c-0.9-0.6-2-1-3.1-1c-0.8,0-1.6,0.2-2.3,0.5
		c-0.7,0.3-1.3,0.8-1.9,1.3c-0.5,0.6-1,1.2-1.3,2c-0.3,0.8-0.5,1.6-0.5,2.4s0.2,1.6,0.5,2.4c0.3,0.7,0.7,1.4,1.3,2
		c0.5,0.6,1.2,1,1.9,1.3c0.7,0.3,1.5,0.5,2.3,0.5c1.1,0,2.2-0.3,3.1-1c0.8-0.5,1.4-1.2,1.9-2v2.5c0,0.3,0.2,0.5,0.5,0.5
		c0.3,0,0.4-0.2,0.4-0.5V26.7C37.1,26.5,37,26.2,36.7,26.2z M31.3,27.1c2.7,0,5,2.4,5,5.3c0,2.9-2.2,5.3-5,5.3s-5-2.4-5-5.3
		C26.3,29.5,28.5,27.1,31.3,27.1z"/>
	<g>
		<path class="st0" d="M50.2,26.2c-0.3,0-0.5,0.2-0.5,0.5v2.5c-0.5-0.8-1.1-1.5-1.9-2c-0.9-0.6-2-1-3.1-1c-0.8,0-1.6,0.2-2.3,0.5
			c-0.7,0.3-1.3,0.8-1.9,1.3c-0.5,0.6-1,1.2-1.3,2c-0.3,0.8-0.5,1.6-0.5,2.4s0.2,1.6,0.5,2.4c0.3,0.7,0.7,1.4,1.3,2
			c0.5,0.6,1.2,1,1.9,1.3c0.7,0.3,1.5,0.5,2.3,0.5c1.1,0,2.2-0.3,3.1-1c0.8-0.5,1.4-1.2,1.9-2v2.5c0,0.3,0.2,0.5,0.5,0.5
			c0.3,0,0.4-0.2,0.4-0.5V26.7C50.6,26.5,50.5,26.2,50.2,26.2z M44.8,37.7c-2.7,0-5-2.4-5-5.3c0-2.9,2.2-5.3,5-5.3s5,2.4,5,5.3
			C49.7,35.3,47.5,37.7,44.8,37.7z"/>
	</g>
	<g>
		<path class="st0" d="M65.2,30c-0.3-0.7-0.7-1.4-1.3-1.9c-1.1-1.2-2.6-1.8-4.3-1.8c-1.1,0-2.2,0.3-3.2,0.9c-0.8,0.5-1.4,1.2-1.9,2
			v-2.4c0-0.3-0.2-0.5-0.4-0.5c-0.3,0-0.5,0.2-0.5,0.5v16.8c0,0.3,0.2,0.5,0.5,0.5c0.3,0,0.4-0.2,0.4-0.5v-7.9
			c0.5,0.8,1.1,1.4,1.9,1.9c1,0.6,2.1,0.9,3.2,0.9c0.8,0,1.6-0.2,2.4-0.5c0.7-0.3,1.4-0.8,1.9-1.3c0.5-0.6,1-1.2,1.3-2
			c0.3-0.8,0.5-1.6,0.5-2.4S65.5,30.7,65.2,30z M64.7,32.4c0,2.9-2.3,5.2-5.1,5.2c-2.8,0-5-2.4-5-5.2v-0.2c0.1-2.8,2.4-5,5-5
			C62.4,27.1,64.7,29.5,64.7,32.4z"/>
	</g>
	<g>
		<path class="st0" d="M78.3,31.2v6.9c0,0.3-0.2,0.5-0.5,0.5c-0.3,0-0.4-0.2-0.4-0.5v-6.9c0-2.3-1.9-4.1-4.1-4.1
			c-2.3,0-4.1,1.9-4.1,4.1v6.9c0,0.1,0,0.2-0.1,0.3c-0.1,0.1-0.2,0.2-0.3,0.2h-0.2l0,0c0,0,0,0,0,0c-0.1,0-0.1-0.1-0.1-0.1
			s-0.1-0.1-0.1-0.1c0-0.1-0.1-0.1-0.1-0.2V26.6c0-0.3,0.2-0.4,0.5-0.4c0.3,0,0.4,0.2,0.4,0.4v1.7c0.4-0.6,0.9-1.1,1.6-1.5
			c0.8-0.5,1.7-0.7,2.6-0.7c0.7,0,1.3,0.1,1.9,0.4c0.6,0.3,1.1,0.6,1.6,1.1c0.5,0.5,0.8,1,1.1,1.6C78.2,29.9,78.3,30.6,78.3,31.2z"
			/>
	</g>
	<g>
		<path class="st0" d="M91.5,26.2c-0.3,0-0.5,0.2-0.5,0.5v2.5c-0.5-0.8-1.1-1.5-1.9-2c-0.9-0.6-2-1-3.1-1c-0.8,0-1.6,0.2-2.3,0.5
			c-0.7,0.3-1.3,0.8-1.9,1.3c-0.5,0.6-1,1.2-1.3,2c-0.3,0.8-0.5,1.6-0.5,2.4s0.2,1.6,0.5,2.4c0.3,0.7,0.7,1.4,1.3,2s1.2,1,1.9,1.3
			c0.7,0.3,1.5,0.5,2.3,0.5c1.1,0,2.2-0.3,3.1-1c0.8-0.5,1.4-1.2,1.9-2v2.5c0,0.3,0.2,0.5,0.5,0.5c0.3,0,0.4-0.2,0.4-0.5V26.7
			C92,26.5,91.8,26.2,91.5,26.2z M91.1,32.4c0,2.9-2.2,5.3-5,5.3c-2.7,0-5-2.4-5-5.3c0-2.9,2.2-5.3,5-5.3
			C88.8,27.1,91.1,29.5,91.1,32.4z"/>
	</g>
	<g>
		<path class="st1" d="M7.4,32.8c0.7-1.6,2.3-2.7,4-2.9l0.7-4.2c-4.1-0.1-7.7,2.5-8.9,6.4L7.4,32.8z"/>
		<path class="st1" d="M9.9,39.3c-1.6-0.7-2.7-2.3-2.9-4l-4.2-0.7c-0.1,4.1,2.5,7.7,6.4,8.9L9.9,39.3z"/>
		<path class="st1" d="M16.4,36.8c-0.7,1.6-2.3,2.7-4,2.9l-0.7,4.2c4.1,0.1,7.7-2.5,8.9-6.4L16.4,36.8z"/>
	</g>
	<path class="st2" d="M24.6,25.8H14.5l0,0l-0.7,4.5l0.1,0.1c1.6,0.7,2.6,2.2,2.8,3.9l0,0.1l4.5,0.7l0,0l0,0L24.6,25.8z"/>
	<g>
		<path class="st3" d="M93,25.9L93,25.9c0-0.8,0.6-1.5,1.5-1.5c0.8,0,1.5,0.7,1.5,1.5v0c0,0.8-0.6,1.5-1.5,1.5
			C93.6,27.4,93,26.7,93,25.9z M95.7,25.9L95.7,25.9c0-0.7-0.6-1.3-1.3-1.3s-1.3,0.6-1.3,1.3v0c0,0.7,0.6,1.3,1.3,1.3
			C95.2,27.3,95.7,26.6,95.7,25.9z M95.1,26.6c0,0.1,0,0.1-0.1,0.2c0,0,0,0-0.1,0s-0.1,0-0.1,0c0,0-0.1-0.1-0.1-0.1
			c0-0.1-0.1-0.2-0.1-0.3c0,0,0-0.1,0-0.1c0,0,0-0.1-0.1-0.1c-0.1,0-0.1-0.1-0.1-0.1h-0.3v0.5c0,0.1-0.1,0.1-0.1,0.1
			s-0.1-0.1-0.1-0.1v-1.5c0-0.1,0.1-0.1,0.1-0.1h0.5c0.3,0,0.5,0.2,0.5,0.5c0,0.2-0.1,0.3-0.2,0.4c0,0,0.1,0.1,0.1,0.1
			c0,0.1,0.1,0.2,0.1,0.3c0,0.1,0,0.1,0,0.2C95.1,26.6,95.1,26.6,95.1,26.6z M94.7,25.6c0-0.1-0.1-0.3-0.3-0.3h-0.3v0.5h0.3
			C94.6,25.9,94.7,25.8,94.7,25.6z"/>
	</g>
</g>
</svg>
