<?xml version="1.0" encoding="utf-8"?>
<!-- Generator: Adobe Illustrator 26.0.3, SVG Export Plug-In . SVG Version: 6.00 Build 0)  -->
<svg version="1.1" id="Layer_1" xmlns="http://www.w3.org/2000/svg" xmlns:xlink="http://www.w3.org/1999/xlink" x="0px" y="0px"
	 viewBox="0 0 98 67" style="enable-background:new 0 0 98 67;" xml:space="preserve">
<style type="text/css">
	.st0{fill:none;stroke:#FFFFFF;stroke-width:1.7793;stroke-linecap:round;stroke-linejoin:round;stroke-miterlimit:10;}
	.st1{fill:#91A23A;stroke:#92A23A;stroke-width:2.2858;stroke-linecap:round;stroke-linejoin:round;stroke-miterlimit:10;}
</style>
<g>
	<g>
		<path class="st0" d="M29.2,28.3c2.2-5,7.2-8.5,12.6-9.1L44,6c-12.9-0.3-24.2,7.8-27.9,20.1L29.2,28.3z"/>
		<path class="st0" d="M37.1,48.7c-5-2.2-8.5-7.2-9.1-12.6L14.8,34c-0.3,12.9,7.8,24.2,20.1,27.9L37.1,48.7z"/>
		<path class="st0" d="M57.5,40.9c-2.2,5-7.2,8.5-12.6,9.1l-2.2,13.2c12.9,0.3,24.2-7.8,27.9-20.1L57.5,40.9z"/>
	</g>
	<path class="st1" d="M83.2,6.3H51.5l0,0l-2.2,14.1l0.3,0.3c5,2.2,8.2,6.9,8.8,12.2v0.3l14.1,2.2l0,0l0,0L83.2,6.3z"/>
</g>
</svg>
